<?xml version="1.0" encoding="utf-8"?>
<!-- Generator: Adobe Illustrator 17.1.0, SVG Export Plug-In . SVG Version: 6.00 Build 0)  -->
<!DOCTYPE svg PUBLIC "-//W3C//DTD SVG 1.1//EN" "http://www.w3.org/Graphics/SVG/1.1/DTD/svg11.dtd">
<svg version="1.1" id="Layer_1" xmlns="http://www.w3.org/2000/svg" xmlns:xlink="http://www.w3.org/1999/xlink" x="0px" y="0px"
	 viewBox="0 0 1008 720" enable-background="new 0 0 1008 720" xml:space="preserve">
<g id="ODT_LOGO">
	<g id="SYMBOL">
		<linearGradient id="SVGID_1_" gradientUnits="userSpaceOnUse" x1="125.5446" y1="207.3497" x2="156.4567" y2="292.2799">
			<stop  offset="4.948372e-02" style="stop-color:#0254BF"/>
			<stop  offset="0.2945" style="stop-color:#012675"/>
		</linearGradient>
		<path fill="url(#SVGID_1_)" d="M213.7,248.5c-28.8-16.4-54.3-31-61.4-35c-10.9-6.1-24-7.8-34.3-3.3c0.1-0.1,0.2-0.1,0.2-0.1
			s-0.1,0.1-0.2,0.1c-1.7,0.8-3.4,1.7-4.9,2.9c-5,2.9-13,7.6-21.1,12.3v90.4l11.9-6.6c0,0,0,0,0-0.1L213.7,248.5z"/>
		
			<linearGradient id="SVGID_2_" gradientUnits="userSpaceOnUse" x1="328.9687" y1="373.2215" x2="247.7556" y2="373.2215" gradientTransform="matrix(0.9998 -2.138532e-02 2.138532e-02 0.9998 -9.8235 12.5831)">
			<stop  offset="4.948372e-02" style="stop-color:#0254BF"/>
			<stop  offset="0.2945" style="stop-color:#012675"/>
		</linearGradient>
		<path fill="url(#SVGID_2_)" d="M247.3,450c28.3-17.2,53.3-32.5,60.3-36.9c10.6-6.6,18.5-17.2,19.4-28.4c0,0.1,0,0.2,0,0.2
			s0-0.1,0-0.3c0.2-1.9-0.3-4.1-0.6-6c-0.1-5.8-1.1-14.8-1.4-24.2l-77.9-43.6l0,13.6c0,0,0,0,0,0L247.3,450z"/>
		<linearGradient id="SVGID_3_" gradientUnits="userSpaceOnUse" x1="58.1635" y1="467.3996" x2="125.5024" y2="400.0606">
			<stop  offset="4.948372e-02" style="stop-color:#0254BF"/>
			<stop  offset="0.2945" style="stop-color:#012675"/>
		</linearGradient>
		<path fill="url(#SVGID_3_)" d="M54.6,375.3c-0.1,33.1-0.1,62.5-0.1,70.7c0,12.5,5.1,24.8,14.1,31.4c-0.1-0.1-0.2-0.1-0.2-0.1
			s0.1,0.1,0.2,0.1c1.5,1.1,3.2,2.1,4.9,2.9c5,2.9,13,7.6,21.1,12.3l78.6-44.7l-11.6-7.1c0,0,0,0,0,0L54.6,375.3z"/>
		<linearGradient id="SVGID_4_" gradientUnits="userSpaceOnUse" x1="81.5118" y1="251.0979" x2="261.2203" y2="465.2662">
			<stop  offset="0" style="stop-color:#0075FF"/>
			<stop  offset="1" style="stop-color:#73CFFF"/>
		</linearGradient>
		<circle fill="url(#SVGID_4_)" cx="171.4" cy="358.2" r="139.8"/>
		<path fill="#FFFFFF" d="M229.2,343.2c11.6,6.7,11.6,23.5,0,30.2l-37.6,21.7l-37.6,21.7c-11.6,6.7-26.2-1.7-26.2-15.1v-43.4v-43.4
			c0-13.4,14.6-21.8,26.2-15.1l37.6,21.7L229.2,343.2z"/>
		<linearGradient id="SVGID_5_" gradientUnits="userSpaceOnUse" x1="234.5945" y1="368.1551" x2="145.3758" y2="522.6863">
			<stop  offset="8.000000e-02" style="stop-color:#FFFFFF;stop-opacity:0"/>
			<stop  offset="0.75" style="stop-color:#FFFFFF"/>
		</linearGradient>
		<path fill="url(#SVGID_5_)" d="M263.4,384.8c-26.7,15.4-160.3,92.8-162.8,94c-16.2,8.1-30.1,0.6-30.1,0.6s47.9,27.5,54.3,31.3
			c6.4,3.7,14.1,0.7,22.2-4c9.7-5.6,125.9-72.9,161.2-93.4L263.4,384.8z"/>
		<linearGradient id="SVGID_6_" gradientUnits="userSpaceOnUse" x1="130.3039" y1="391.9409" x2="37.3393" y2="259.1738">
			<stop  offset="8.000000e-02" style="stop-color:#FFFFFF;stop-opacity:0"/>
			<stop  offset="0.75" style="stop-color:#FFFFFF"/>
		</linearGradient>
		<path fill="url(#SVGID_6_)" d="M101.9,411.8c-0.1-47.3-0.5-172.3-0.3-174.9c1.1-18.1,14.4-26.4,14.4-26.4s-47.8,27.8-54.2,31.5
			c-6.4,3.7-7.6,11.9-7.6,21.2c0,9.5,0.2,129.7,0.3,181.4L101.9,411.8z"/>
		<linearGradient id="SVGID_7_" gradientUnits="userSpaceOnUse" x1="327.6555" y1="299.6623" x2="154.5249" y2="299.6623">
			<stop  offset="0.3" style="stop-color:#FFFFFF"/>
			<stop  offset="0.92" style="stop-color:#FFFFFF;stop-opacity:0"/>
		</linearGradient>
		<path fill="url(#SVGID_7_)" d="M327.4,321.9c0-7.4-6.5-12.5-14.6-17.2c-9.7-5.6-122.6-69.8-158.3-90.1l1,51.8
			c43.1,24.6,154.5,91.2,156.6,92.5c15.1,9.9,15.1,24.6,15.6,25.8C327.7,384.7,327.4,329.4,327.4,321.9z"/>
	</g>
	<g id="TEXT">
		<path fill="#02409F" d="M395.1,390.2c-4.3,0-8.4-0.8-12.3-2.5c-3.8-1.7-7.2-3.9-10-6.7c-2.8-2.8-5.1-6.2-6.7-10
			c-1.6-3.8-2.4-7.9-2.4-12.3c0-4.3,0.8-8.4,2.4-12.3c1.6-3.8,3.9-7.2,6.7-10c2.8-2.8,6.2-5.1,10-6.7c3.8-1.7,7.9-2.5,12.3-2.5
			c4.3,0,8.4,0.8,12.3,2.5c3.8,1.7,7.2,3.9,10,6.7c2.8,2.8,5.1,6.2,6.7,10c1.6,3.8,2.4,7.9,2.4,12.3c0,4.3-0.8,8.4-2.4,12.3
			c-1.6,3.8-3.9,7.2-6.7,10c-2.8,2.8-6.2,5.1-10,6.7C403.5,389.4,399.4,390.2,395.1,390.2z M395.1,385.1c3.6,0,7-0.7,10.1-2
			c3.1-1.4,5.9-3.2,8.2-5.6c2.3-2.4,4.2-5.2,5.5-8.4c1.3-3.2,2-6.7,2-10.3c0-3.7-0.7-7.1-2-10.3c-1.3-3.2-3.2-6-5.5-8.4
			c-2.3-2.4-5.1-4.2-8.2-5.6c-3.1-1.4-6.5-2-10.1-2c-3.6,0-7,0.7-10.1,2c-3.1,1.4-5.9,3.2-8.2,5.6c-2.3,2.4-4.2,5.2-5.5,8.4
			c-1.3,3.2-2,6.7-2,10.3c0,3.7,0.7,7.1,2,10.3c1.3,3.2,3.2,6,5.5,8.4c2.3,2.4,5.1,4.2,8.2,5.6C388.1,384.4,391.5,385.1,395.1,385.1
			z"/>
		<path fill="#02409F" d="M465.8,389.1l-26.3-39.7v39.7h-4v-44h5.8l26.3,39.8v-39.8h4v44H465.8z"/>
		<path fill="#02409F" d="M482.8,389.1v-60.9H502c3.3,0,6.4,0.4,9.4,1.1c3,0.8,5.7,1.9,8.2,3.3c4.5,2.6,8,6.2,10.7,10.7
			c2.7,4.5,4,9.6,4,15.3c0,5.7-1.3,10.8-4,15.3c-2.7,4.5-6.2,8.1-10.7,10.7c-2.5,1.4-5.2,2.6-8.2,3.3c-3,0.8-6.1,1.1-9.4,1.1H482.8z
			 M502,384c2.8,0,5.4-0.3,7.9-1c2.5-0.6,4.7-1.5,6.6-2.7c3.7-2.1,6.6-5.1,8.8-8.8c2.2-3.7,3.3-8,3.3-12.8c0-4.8-1.1-9.1-3.3-12.8
			c-2.2-3.7-5.2-6.7-8.8-8.8c-1.9-1.2-4.1-2.1-6.6-2.7c-2.5-0.6-5.1-1-7.9-1h-13.7V384H502z"/>
		<path fill="#02409F" d="M543.3,389.1v-44h30.5v3.7h-26.6v15.8h24.2v3.7h-24.2v17h26.6v3.7H543.3z"/>
		<path fill="#02409F" d="M619.1,389.1v-38.4H619l-17,33.1h-0.1l-17-33.1h-0.1v38.4h-4v-44h5.5l15.7,30.6l15.7-30.6h5.5v44H619.1z"
			/>
		<path fill="#02409F" d="M663.4,389.1l-4.8-12.6h-21.4l-4.8,12.6h-4.1l16.9-44h5.3l16.9,44H663.4z M648,348.1l-9.4,24.9h18.7
			L648,348.1z"/>
		<path fill="#02409F" d="M703.1,389.1l-26.3-39.7v39.7h-4v-44h5.8l26.3,39.8v-39.8h4v44H703.1z"/>
		<path fill="#02409F" d="M718.3,389.1v-44h13.8c2.4,0,4.6,0.3,6.8,0.8c2.1,0.5,4.1,1.3,5.9,2.4c3.2,1.9,5.8,4.5,7.7,7.7
			c1.9,3.3,2.9,7,2.9,11.1c0,4.1-1,7.8-2.9,11.1c-1.9,3.3-4.5,5.8-7.7,7.7c-1.8,1-3.8,1.8-5.9,2.4c-2.1,0.5-4.4,0.8-6.8,0.8H718.3z
			 M732.1,385.4c2,0,3.9-0.2,5.7-0.7c1.8-0.5,3.4-1.1,4.8-1.9c2.6-1.5,4.8-3.7,6.4-6.4c1.6-2.7,2.4-5.8,2.4-9.3
			c0-3.5-0.8-6.6-2.4-9.3c-1.6-2.7-3.7-4.8-6.4-6.4c-1.4-0.8-3-1.5-4.8-1.9c-1.8-0.5-3.7-0.7-5.7-0.7h-9.9v36.6H732.1z"/>
		<path fill="#02409F" d="M774.2,389.1v-34.4h-14.1v-9.5h39.6v9.5h-14.1v34.4H774.2z"/>
		<path fill="#02409F" d="M844.9,367.2c0,3.2-0.6,6.2-1.8,8.9c-1.2,2.8-2.8,5.2-4.9,7.2c-2.1,2.1-4.5,3.7-7.3,4.8
			c-2.8,1.2-5.8,1.8-9,1.8c-3.2,0-6.3-0.6-9.1-1.8c-2.8-1.2-5.3-2.8-7.4-4.8c-2.1-2.1-3.7-4.5-4.9-7.2c-1.2-2.8-1.8-5.7-1.8-8.9
			c0-3.2,0.6-6.2,1.8-8.9c1.2-2.8,2.8-5.2,4.9-7.2c2.1-2.1,4.5-3.7,7.4-4.8c2.8-1.2,5.9-1.8,9.1-1.8c3.2,0,6.2,0.6,9,1.8
			c2.8,1.2,5.2,2.8,7.3,4.8c2.1,2.1,3.7,4.5,4.9,7.2S844.9,364,844.9,367.2z M821.8,380.2c1.6,0,3.2-0.3,4.6-1
			c1.4-0.6,2.6-1.5,3.6-2.7c1-1.2,1.8-2.5,2.4-4.1c0.6-1.6,0.9-3.4,0.9-5.2c0-1.9-0.3-3.6-0.9-5.2c-0.6-1.6-1.4-3-2.4-4.1
			c-1-1.2-2.2-2.1-3.6-2.7c-1.4-0.6-2.9-1-4.6-1c-1.6,0-3.2,0.3-4.6,1c-1.4,0.7-2.6,1.6-3.6,2.7c-1,1.2-1.8,2.5-2.4,4.1
			c-0.6,1.6-0.8,3.4-0.8,5.2c0,1.9,0.3,3.6,0.8,5.2c0.6,1.6,1.4,3,2.4,4.1c1,1.2,2.2,2.1,3.6,2.7
			C818.7,379.9,820.2,380.2,821.8,380.2z"/>
		<path fill="#02409F" d="M896.6,367.2c0,3.2-0.6,6.2-1.8,8.9c-1.2,2.8-2.8,5.2-4.9,7.2c-2.1,2.1-4.5,3.7-7.3,4.8
			c-2.8,1.2-5.8,1.8-9,1.8c-3.2,0-6.3-0.6-9.1-1.8c-2.8-1.2-5.3-2.8-7.4-4.8c-2.1-2.1-3.7-4.5-4.9-7.2c-1.2-2.8-1.8-5.7-1.8-8.9
			c0-3.2,0.6-6.2,1.8-8.9c1.2-2.8,2.8-5.2,4.9-7.2c2.1-2.1,4.5-3.7,7.4-4.8c2.8-1.2,5.9-1.8,9.1-1.8c3.2,0,6.2,0.6,9,1.8
			c2.8,1.2,5.2,2.8,7.3,4.8c2.1,2.1,3.7,4.5,4.9,7.2S896.6,364,896.6,367.2z M873.6,380.2c1.6,0,3.2-0.3,4.6-1
			c1.4-0.6,2.6-1.5,3.6-2.7c1-1.2,1.8-2.5,2.4-4.1c0.6-1.6,0.9-3.4,0.9-5.2c0-1.9-0.3-3.6-0.9-5.2c-0.6-1.6-1.4-3-2.4-4.1
			c-1-1.2-2.2-2.1-3.6-2.7c-1.4-0.6-2.9-1-4.6-1c-1.6,0-3.2,0.3-4.6,1c-1.4,0.7-2.6,1.6-3.6,2.7c-1,1.2-1.8,2.5-2.4,4.1
			c-0.6,1.6-0.8,3.4-0.8,5.2c0,1.9,0.3,3.6,0.8,5.2c0.6,1.6,1.4,3,2.4,4.1c1,1.2,2.2,2.1,3.6,2.7C870.4,379.9,872,380.2,873.6,380.2
			z"/>
		<path fill="#02409F" d="M903.2,389.1v-44h11.5v34.4h22.7v9.5H903.2z"/>
		<path fill="#02409F" d="M942.3,375.6c2.7,1.8,5.2,3.1,7.7,3.9c2.4,0.8,5,1.1,7.8,1.1c2.3,0,4.1-0.4,5.3-1.2
			c1.3-0.8,1.9-1.9,1.9-3.5c0-0.8-0.2-1.4-0.5-1.9c-0.4-0.5-0.8-1-1.4-1.4c-0.6-0.4-1.3-0.7-2.2-1c-0.8-0.3-1.7-0.5-2.6-0.8
			c-2.2-0.5-4.3-1.1-6.2-1.7c-1.9-0.6-3.6-1.5-5.1-2.6c-1.4-1.1-2.6-2.4-3.4-4c-0.8-1.6-1.2-3.5-1.2-5.7c0-2.3,0.4-4.2,1.3-5.8
			c0.9-1.6,2.1-2.9,3.5-3.9c1.5-1,3.2-1.7,5.1-2.1c1.9-0.4,3.8-0.7,5.8-0.7c2.3,0,4.8,0.2,7.4,0.7c2.6,0.5,5.3,1.3,8,2.4v10.4
			c-3.1-1.5-6-2.6-8.6-3.2c-2.7-0.6-4.7-0.9-6.2-0.9c-1.5,0-2.7,0.3-3.6,0.8c-0.9,0.5-1.4,1.3-1.4,2.4c0,1.3,0.6,2.2,1.7,2.8
			c1.1,0.6,2.9,1.2,5.4,1.8c1.9,0.5,3.8,1,5.7,1.7c1.9,0.7,3.6,1.5,5,2.6c1.5,1.1,2.7,2.4,3.6,4c0.9,1.6,1.4,3.5,1.4,5.7
			c0,2.3-0.5,4.4-1.4,6.2c-0.9,1.8-2.2,3.3-3.8,4.5c-1.6,1.2-3.5,2.1-5.7,2.8c-2.2,0.6-4.5,1-6.9,1c-2.6,0-5.3-0.3-8-0.9
			c-2.7-0.6-5.5-1.6-8.2-3V375.6z"/>
	</g>
</g>
</svg>
